<svg xmlns="http://www.w3.org/2000/svg" viewBox="0 0 132.4 45">
  <path d="M58.5 11.4v4.4h-6.1V34h-5.5V15.7h-6.1v-4.4h17.7zm12.6 5.4c1 .6 1.7 1.5 2.2 2.5v-3.2h5.4V34h-5.4v-3.2c-.5 1.1-1.2 1.9-2.2 2.5-1 .6-2.2.9-3.5.9-1.5 0-2.8-.4-4-1.1-1.2-.7-2.1-1.8-2.8-3.2-.7-1.4-1-3-1-4.9 0-1.9.3-3.5 1-4.9.7-1.4 1.6-2.4 2.8-3.2 1.2-.7 2.5-1.1 4-1.1 1.4.1 2.5.4 3.5 1zm-4.6 5.1c-.7.8-1.1 1.8-1.1 3.2s.4 2.4 1.1 3.2c.7.8 1.7 1.2 2.8 1.2 1.2 0 2.1-.4 2.8-1.2s1.1-1.8 1.1-3.2c0-1.3-.4-2.4-1.1-3.2-.7-.8-1.7-1.2-2.8-1.2-1.1 0-2.1.4-2.8 1.2zm27.9-4.3c1.4 1.1 2.2 2.6 2.5 4.5h-5.1c-.1-.7-.5-1.3-1-1.7-.5-.4-1.2-.6-2-.6-.6 0-1.1.1-1.4.4-.3.3-.5.6-.5 1.1 0 .6.3 1 .9 1.2s1.5.6 2.8.8c1.4.3 2.5.6 3.4 1 .9.3 1.6.9 2.3 1.6.6.7 1 1.8 1 3 0 1-.3 1.9-.8 2.7s-1.5 1.5-2.5 2-2.3.7-3.7.7c-2.4 0-4.3-.5-5.8-1.6S82.2 30 81.8 28h5.3c.1.8.4 1.4 1 1.8.6.4 1.3.6 2.2.6.6 0 1.1-.1 1.4-.4s.5-.7.5-1.1c0-.6-.3-1.1-.9-1.3-.6-.3-1.5-.5-2.9-.8-1.3-.3-2.4-.6-3.3-.9-.9-.3-1.6-.8-2.2-1.6-.6-.7-.9-1.7-.9-2.9 0-1.6.6-2.9 1.8-3.9S86.7 16 89 16c2.3-.1 4.1.5 5.4 1.6zm16 11.7V34h-2.5c-2.1 0-3.7-.5-4.9-1.6-1.2-1-1.7-2.7-1.7-5.1v-6.6h-2.4v-4.6h2.4v-4.4h5.5v4.4h3.6v4.6h-3.6v6.7c0 .7.1 1.2.4 1.5s.8.4 1.5.4h1.7zm7.2-13.2l4.3 10.9 4-10.9h6l-11.1 26.4h-6l4.2-9.2-7.5-17.2h6.1zM30.4 18.9c-.3-3.2-3-5.6-6.2-5.7h-.7c-1.4-4.3-6-6.8-10.4-5.4-2.6.8-4.6 2.9-5.4 5.5-.4-.1-.9-.1-1.4-.1-3.5 0-6.3 2.9-6.3 6.4 0 3.2 2.5 5.9 5.6 6.2v10c0 .9.7 1.6 1.6 1.6H23c.9 0 1.6-.7 1.6-1.6v-10c3.6-.3 6.1-3.4 5.8-6.9zM15 25.1c-5.9 0-7.2-5.6-7.2-5.6 4.7 3.5 9.5 3.3 14.7 0 0-.1-1.6 5.5-7.5 5.6z" fill="#fff"/>
</svg>
