<svg xmlns="http://www.w3.org/2000/svg" width="171.55" height="61.662">
  <path d="M107.569 61.052a1.157 1.157 0 01-.669-.521 10.55 10.55 0 01-.446-1.369 49.912 49.912 0 01-.981-4.9c-.338-2.1-.68-4.422-1.015-6.909-.335-2.459-.649-5.033-.936-7.65-.285-2.581-.508-5-.665-7.186q-.079-1.647-.156-4.3c-.052-1.74-.078-3.566-.078-5.429s.026-3.567.078-5.079c.052-1.555.1-2.617.156-3.248.106-.493.183-.944.235-1.374a6.011 6.011 0 01.154-.907v-.189q-2.068.5-3.627.9-1.677.429-3.546.934c-1.285.35-2.406.668-3.425.973q-1.323.392-1.9.584a4.921 4.921 0 00-.526.2c-.127.277-.594.359-1.052.4a7.039 7.039 0 00-2.2.531c-.427.109-.828.225-1.217.355l-.819.273a1.214 1.214 0 01-1.114-.3 1.108 1.108 0 01-.433-.949.9.9 0 01.584-.625 9.134 9.134 0 012.4-.8c.255-.05.679-.156 1.27-.31s1.239-.338 1.9-.542c4.354-1.348 8.507-2.478 12.342-3.359A103.408 103.408 0 01113.064 8.3c.587-.051 1.248-.092 1.969-.117 1.468-.052 2.87-.052 4 0a12.852 12.852 0 011.355.119 10.626 10.626 0 011.777.6 1.947 1.947 0 011.055.85c.169.257.362.625.187.912-.105.177-.35.334-.91.055-2.037-1.271-7.013-1.156-14.818.334l-1.1.193.051.468c.075.533.064.668.013.768-.107.212-.388.212-.494.212a3.517 3.517 0 00-.141.942c-.208 1.861-.325 4.136-.351 6.767s.039 5.617.2 8.878.418 6.83.78 10.6c.354 3.727.8 7.713 1.324 11.847.1.939.22 1.872.352 2.806l.351 2.575c.1.777.207 1.428.309 1.934a9.841 9.841 0 00.226.986.912.912 0 01-.173.9.959.959 0 01-.7.229 3.133 3.133 0 01-.757-.106zm-95.8.041a1.849 1.849 0 01-.692-.4l-.446-.354-.49.162a4.923 4.923 0 01-2.148.166 3.591 3.591 0 01-1.716-.755 3.2 3.2 0 01-1.014-1.48 4.11 4.11 0 01-.126-1.949 10.507 10.507 0 01.559-1.925 19.8 19.8 0 011.027-2.212l.663-1.4-.377-2.185q-.313-1.956-.625-4.141c-.206-1.441-.39-2.887-.547-4.3s-.288-2.752-.39-3.985-.158-2.3-.158-3.14v-.7l-.711-.322c-2.152-1.022-3.485-2.974-3.964-5.8a14.776 14.776 0 01-.081-2.86 20.725 20.725 0 01.316-3.081 30.173 30.173 0 011.928-5.941 39.534 39.534 0 012.944-5.5 27.536 27.536 0 013.622-4.525 16.412 16.412 0 013.961-3.009 8.45 8.45 0 011.807-.761 6.581 6.581 0 011.661-.2 8.374 8.374 0 011.011.041 3.787 3.787 0 01.974.374 6.024 6.024 0 013.253 4.385 14.64 14.64 0 01.162 2.47 21.477 21.477 0 01-.157 2.762 46 46 0 01-2.511 8.635 93.71 93.71 0 01-5.161 11.106l-.279.557c.139-.1.293-.214.459-.332a15.4 15.4 0 016.423-3.165 6.273 6.273 0 012.409.123 4.513 4.513 0 011.941 1.2 5.676 5.676 0 011.712 4.155v.141l1.51-.756c1.162-.526 2.19-.96 3.064-1.3a3.814 3.814 0 011.853-.439l.032.009a.821.821 0 01.219.128c-.025-.133-.053-.255-.078-.394a41.958 41.958 0 01-.549-5.023c-.1-1.861-.117-3.877-.041-5.99s.224-4.2.431-6.217a15.856 15.856 0 01.319-2.183c.131-.493.258-.733.443-.823a1.542 1.542 0 011.324.238 2.038 2.038 0 01.968.906 1.382 1.382 0 01.135.852c-.032.4-.114.637-.27.752a9.947 9.947 0 00-.2 1.781q-.117 1.793-.235 4.285c-.076 1.656-.115 3.371-.115 5.1 0 1.746.026 3.226.077 4.4.1 1.2.209 2.255.311 3.141a10.607 10.607 0 00.379 2.015l.046.185.31-.35a10.144 10.144 0 001.756-2.786 28.9 28.9 0 001.255-3.2 7.18 7.18 0 01.3-2.372c.124-.382.673-.382.853-.382a3.643 3.643 0 01.726.231c.01-.088.023-.2.039-.325.171-1.024.432-1.579.82-1.746a.956.956 0 01.833-.02 1.912 1.912 0 01.9.626 2.668 2.668 0 01.554 1.271 13.494 13.494 0 01.279 1.987l.06.964.109-.021a7.484 7.484 0 00.932-.512 9.655 9.655 0 001.064-.76c.094-.076.174-.137.24-.186.141-.468.3-.923.467-1.352.569-1.31 1.1-1.976 1.659-2.1a2.2 2.2 0 011.716.388 2.264 2.264 0 011 1.361 1.645 1.645 0 00.135.722l.027.113a.478.478 0 01-.168.393.6.6 0 01-.522.086 1.1 1.1 0 01-.452-.138 1.659 1.659 0 01-.456-.323l-.076-.093-.3.648a18.663 18.663 0 00-.957 3.3 14.144 14.144 0 00-.268 3.372c.066 2.118.482 2.18.53 2.18.387 0 .847-.324 1.366-.961a16.517 16.517 0 001.613-2.42 30.01 30.01 0 001.354-2.747c.266-.62.463-1.108.595-1.472-.028-.374-.052-.808-.069-1.305-.026-.742-.039-1.534-.039-2.427q0-1.291.039-2.543c.026-.827.065-1.592.118-2.272q.077-1.091.2-2.382t.235-2.422l.194-1.872c.08-.765.147-.888.228-.969.267-.267.7-.112.848-.059a1.9 1.9 0 01.675.369 1.407 1.407 0 01.379.662 6.989 6.989 0 01.125 1.181c.026.551.026 1.292 0 2.2s-.067 2.146-.117 3.705c-.052.782-.093 1.658-.117 2.612s-.04 1.75-.04 2.372v1.235q.37-.579.759-1.109a2.6 2.6 0 01.83-.817 1.507 1.507 0 01.931-.1 1.27 1.27 0 01.807.6 2.057 2.057 0 01.258.774.931.931 0 01-.148.841l-.073.074h-.1a1.445 1.445 0 01-.674-.269.642.642 0 00-.265-.068c-.113.184-.313.542-.6 1.065a6.791 6.791 0 00-.641 1.5 8.122 8.122 0 00-.617 2.607c-.055.923.086 1.066.092 1.072.429-.01 1.711-.752 5.23-5.288a18.287 18.287 0 01.266-2.085c.437-1.674.706-2 1.025-2a1.723 1.723 0 01.919.355 1.987 1.987 0 01.708.719c.255.575.271.989.055 1.277a2.912 2.912 0 00-.266.875 13.42 13.42 0 00-.23 1.571c-.051.561-.077 1.131-.077 1.695a9.841 9.841 0 00.076 1.369 3.072 3.072 0 00.148.823c.105.37.2.742.278 1.109a5.282 5.282 0 00.227.751c.021-.034.042-.068.061-.1a2.837 2.837 0 00.142-.246 17.887 17.887 0 011.189-1.867c.458-.636.934-1.257 1.414-1.844.5-.61.936-1.125 1.333-1.569a8.585 8.585 0 01.662-.672c.013-.268.03-.533.054-.784.052-.543.09-1.021.117-1.435.037-.6.094-.767.189-.862.235-.234.634-.148.914-.063a2.223 2.223 0 01.922.53l.544.452-.081 4.02c-.049 2.4-.044 3.379-.028 3.764.077-.1.188-.248.355-.483.246-.4.623-1.083 1.112-2.035s.941-1.868 1.361-2.761c.042-.131.16-.436.346-.886s.383-.885.593-1.3a9.705 9.705 0 01.68-1.161c.3-.425.539-.615.79-.615a1.044 1.044 0 011.059.842 18.2 18.2 0 01.361 3.056q.077 1.1.117 2.152c.025.692.064 1.331.116 1.9q.054.651.109 1.264c.063-.076.139-.164.231-.273.423-.5.878-1.075 1.356-1.706l1.483-1.949a10.675 10.675 0 00.95-1.4c.316-.481.445-.606.613-.606a.842.842 0 01.566.305l.4.262-.677 1.065c-.366.576-.892 1.333-1.608 2.314-.69.949-1.39 1.832-2.08 2.629l-1.107 1.328.076 3.963v2.853c0 .8-.026 1.507-.078 2.089s-.106 1.105-.156 1.6a13.406 13.406 0 01-.24 1.472 5.51 5.51 0 01-1.238 2.773 1.77 1.77 0 01-1.277.559 2.192 2.192 0 01-.869-.193 2.945 2.945 0 01-1.529-1.445 6.365 6.365 0 01-.69-3.469 14.854 14.854 0 01.754-4.442 19.355 19.355 0 011.029-2.339 16.523 16.523 0 011.268-2.1l.576-.72v-4.747c0-1.668-.006-2.709-.017-3.358-.106.231-.228.491-.365.775q-.55 1.134-1.133 2.3l-1.092 2.182c-.346.692-.591 1.157-.751 1.421a1.655 1.655 0 01-1.839.892 2.233 2.233 0 01-1.612-1.516 13.141 13.141 0 01-.6-3.545v-.6c-.373.464-.768.951-1.193 1.484a19.482 19.482 0 00-1.424 2.04c-.433.713-.812 1.365-1.126 1.939l-.264.6.438 1.313a31.507 31.507 0 011.021 3.613 14.606 14.606 0 01.4 2.938 5.276 5.276 0 01-.533 2.375 3.574 3.574 0 01-1.471 1.589 4.8 4.8 0 01-.823.222 1.041 1.041 0 01-.151.012 1.766 1.766 0 01-.642-.143 2.78 2.78 0 01-.9-.64 4.662 4.662 0 01-.7-.868 6.154 6.154 0 01-.347-3.392 21.391 21.391 0 011.34-5.093l.513-1.462-.587-1.394a16.91 16.91 0 01-1.423-4.748c-.007-.059-.007-.126-.013-.186-.29.379-.578.762-.867 1.131a15.861 15.861 0 01-1.111 1.309 8.548 8.548 0 01-1.815 1.488 1.932 1.932 0 01-1.56.133c-.153-.05-.266-.084-.347-.105 0 .126 0 .334.012.676a12.532 12.532 0 00.191 1.8c.057.465.082.727.082.865a.4.4 0 01-.406.445h-.344a.571.571 0 01-.176.026 1.437 1.437 0 01-.51-.122 1.188 1.188 0 01-.617-.719 11.052 11.052 0 01-.473-2.408c-.088-.685-.176-1.57-.265-2.607-.211.481-.419.952-.625 1.4a20.557 20.557 0 01-1.066 2.012 7.47 7.47 0 01-1.051 1.411 2.757 2.757 0 01-1.442.887 2.706 2.706 0 01-.658.082 2.836 2.836 0 01-1.055-.209 3.084 3.084 0 01-1-.589 2.309 2.309 0 01-.7-.878 5.5 5.5 0 01-.561-1.892 12.564 12.564 0 01-.08-2.469 16.247 16.247 0 01.257-1.951c-.142.091-.286.185-.42.268a3.219 3.219 0 01-1.3.429h-.152l-.066 1.091c-.053.789-.132 1.57-.236 2.32a10.753 10.753 0 01-.4 1.877 4.665 4.665 0 01-.489 1.292c-.307.537-.461.667-.572.725a2.116 2.116 0 01-.594.085 2.65 2.65 0 01-.847-.149 3.394 3.394 0 01-.79-.559 2.568 2.568 0 01-.6-.737 8.344 8.344 0 01-.608-2.1c-.051-.312-.092-.693-.122-1.109-.812 1.931-1.572 3.058-2.292 3.4a2.052 2.052 0 01-.924.221 2.586 2.586 0 01-1-.215 2.927 2.927 0 01-1.215-1.284 9.446 9.446 0 01-.638-1.852.836.836 0 01-.361.182 6.671 6.671 0 00-.638.225c-.564.2-1.248.483-2.1.855s-1.7.787-2.557 1.239a12.353 12.353 0 00-1.17.676.231.231 0 00-.1.2q0 .165-.04.571a4.378 4.378 0 01-.207.913 24.216 24.216 0 01-1.133 4.257 47.251 47.251 0 01-1.96 4.665c-.755 1.559-1.6 3.1-2.507 4.585a43.461 43.461 0 01-2.786 4.041c-.634.741-1.4 1.557-2.281 2.442a22.945 22.945 0 01-2.289 2.049c-.256.205-.494.39-.7.546-.068.051-.127.093-.177.127h0a1.788 1.788 0 01.312.466l.7.8-.527.4a2.148 2.148 0 01-1.008.206 3.365 3.365 0 01-.646-.057zm-3.893-6.859q-.393.973-.782 1.913a5.317 5.317 0 00-.292 1.658 3.315 3.315 0 00.137 1.119c.23.358 1 .33 1.6.234l.6-.15a2.309 2.309 0 00.417-.139l.168-.067-.206-.465c-.162-.432-.385-1.072-.672-1.933s-.509-1.584-.667-2.16c-.038-.187-.074-.34-.109-.468-.054.111-.119.26-.198.459zm2.586-3.542l.742 3.4c.128.591.245 1.071.346 1.425q.389 1.247.509 1.682c.017.063.033.115.046.157l.06-.049a5.085 5.085 0 01.655-.452 22.2 22.2 0 003.056-3.064 38.68 38.68 0 002.944-4.071 50.724 50.724 0 002.6-4.656 40.014 40.014 0 002.054-5v-.009c.152-.405.292-.843.422-1.305s.244-.9.348-1.319.179-.753.23-1.037c-.472.264-.881.507-1.217.724-.423.273-.879.586-1.354.929s-.885.636-1.249.9a50.058 50.058 0 00-3.99 3.41 41.857 41.857 0 00-3.528 3.721c-.3.353-.628.756-.969 1.2s-.649.857-.932 1.243-.514.719-.692 1a2.737 2.737 0 00-.24.415h0c.004-.006.019.157.154.757zm68.066-13.478a13.863 13.863 0 00-.96 2c-.234.621-.456 1.3-.659 2.007a12.156 12.156 0 00-.34 3.621 4.785 4.785 0 00.845 2.633 2.075 2.075 0 00.178.261 2.852 2.852 0 00.228-.208 2.627 2.627 0 00.449-.884 9.249 9.249 0 00.417-1.633v-.017a9.123 9.123 0 00.11-1.432c.025-.777.039-1.595.039-2.448v-2.5a11.369 11.369 0 00-.075-1.636l-.013-.182zM8.79 38.985c.025.286.065.633.117 1.045.051.474.117 1.083.195 1.84s.168 1.5.273 2.253.207 1.438.31 2.058q.108.644.178 1.03c.056-.082.129-.193.222-.341.471-.58.914-1.154 1.335-1.73.654-.763 1.376-1.579 2.162-2.439a26.482 26.482 0 012.323-2.283c.678-.576 1.3-1.093 1.877-1.564.56-.46 1.181-.934 1.845-1.414.635-.459 1.368-.947 2.236-1.49.815-.509 1.8-1.1 2.921-1.769a1.608 1.608 0 00.087-.3 3.81 3.81 0 00.073-.8c0-.332-.014-.678-.04-1.035s-.065-.691-.114-.994c-.1-.679-.321-1.516-.841-1.671a3.322 3.322 0 00-2.044.08 13.772 13.772 0 00-2.91 1.225 37.609 37.609 0 00-3.516 2.436 51.09 51.09 0 00-4 3.531c-.52.521-.927.913-1.214 1.174s-.513.461-.672.593a.753.753 0 01-.641.207c-.071-.013-.146-.031-.225-.053a3.761 3.761 0 01.058.412zm57.044-1.5q-.39 1.243-.622 2.1a17.79 17.79 0 00-.345 2.066 7.052 7.052 0 00-.04 1.575 4.688 4.688 0 00.259 1.155 1.543 1.543 0 00.22.439 1.125 1.125 0 00.586-.074 2.276 2.276 0 001.292-1.662 6.988 6.988 0 00-.04-3.12q-.157-.617-.348-1.316c-.131-.467-.248-.9-.352-1.289a7 7 0 00-.275-.845c-.072.166-.182.462-.34.97zM9.883 10.292c-.028.264-.079.681-.158 1.256s-.17 1.446-.272 2.563v.006q-.312 2.653-.545 4.681c-.156 1.345-.273 2.615-.35 3.77-.078 1.179-.13 2.33-.156 3.422s-.039 2.3-.039 3.7c0 2.367.025 3.918.077 4.742.012.2.025.353.038.475l.2-.348q.387-.7.857-1.557c2.376-4.235 4.38-8.139 5.959-11.606a74.474 74.474 0 003.458-8.782c1.073-3.931 1.31-6.9.7-8.824a3.891 3.891 0 00-.393-.827 1.07 1.07 0 00-.475-.343 2.69 2.69 0 00-1.5-.139 8.007 8.007 0 00-2.039.757 12.681 12.681 0 00-2.643 1.723 24.992 24.992 0 00-2.664 2.588l-.387.5.282.234a2.485 2.485 0 01.789 1.245.543.543 0 01-.139.525.633.633 0 01-.58.085c-.011.034-.019.085-.025.153zm32.721 17.564q0 .972.038 2.175c.026.8.065 1.558.117 2.252.012.185.026.341.039.471.027-.11.059-.238.091-.39a13.105 13.105 0 00.388-1.776c.106-.694.209-1.285.315-1.807l.058-.533-.427-.306a6.266 6.266 0 01-.614-.5c-.008.106-.01.242-.01.413zM6.188 13.075q-.348.659-.7 1.394t-.582 1.279a30.9 30.9 0 00-1.7 4.724 21.7 21.7 0 00-.733 4.279 11.912 11.912 0 00.227 3.4 4.561 4.561 0 001.143 2.221 2.179 2.179 0 001.306.784h.069l.069-2.642c0-2.329.079-4.579.236-6.681s.419-4.56.781-7.305c.1-.845.187-1.56.264-2.145q-.218.376-.384.691zM43.38 24.733a6.754 6.754 0 000 1.414c.077.221.172.486.277.764-.009-.259-.033-.541-.071-.857q-.069-.934-.16-1.538c-.019.067-.034.139-.05.216zm81.641 16.657a2.66 2.66 0 01-.911-.486 3.922 3.922 0 01-.547-.795 11.185 11.185 0 01-.85-3.01 29.905 29.905 0 01-.276-4.446c0-1.241.026-2.348.078-3.289s.129-2.237.235-3.9c0-.407.011-.827.039-1.249.024-.384.036-.7.038-.952l-.01.015a15.128 15.128 0 00-1.23 2.193c-.514 1.055-.932 2.005-1.239 2.827a24.622 24.622 0 00-.888 2.89 10.221 10.221 0 00-.267 2.246c0 1.112.144 1.289.161 1.306.22.264.2.453.144.569-.107.229-.39.327-.944.327a1.435 1.435 0 01-1.26-.616 5.96 5.96 0 01-.7-1.917 29.417 29.417 0 01-.513-3.78q-.2-2.342-.35-4.684c-.054-.942-.054-2.092 0-3.418s.129-2.658.234-3.989.224-2.548.352-3.6a13.426 13.426 0 01.362-2.118c.054-.22.266-.491.971-.4h.007a2.1 2.1 0 011.2.434l.573.382v1.227c0 .773-.051 1.181-.314 1.252a1.522 1.522 0 00-.079.342c-.05.362-.128 1.2-.231 2.48-.052.567-.077 1.44-.077 2.672v7.137c0 .462.005.793.014 1.033.037-.1.078-.211.124-.339a37.659 37.659 0 011.571-3.921 8.677 8.677 0 011.453-2.331 3.4 3.4 0 01.466-.421.932.932 0 01.694-.039 1.417 1.417 0 011.357 1.018 5.226 5.226 0 01.093 1.971q-.078 1.484-.234 3.981a51.447 51.447 0 00-.079 7.376 15.441 15.441 0 00.841 4.522c.221.445.353.473.354.473s.181-.024.709-.619a10.569 10.569 0 002.025-3.325 70.118 70.118 0 002.292-6.719c.107-.305.2-.6.291-.9a12.169 12.169 0 01.885-4.117 4.026 4.026 0 011.435-2.149 1.567 1.567 0 011.5.2 2 2 0 01.973 1.29 6.4 6.4 0 01-.117 2.325 5.961 5.961 0 01-.859 2.242 1.594 1.594 0 01-.919.841 1.04 1.04 0 01-.818-.148l-.011-.005v1.508c.049.746.1 1.317.153 1.679a5.353 5.353 0 00.224.969 2.44 2.44 0 00.446 1.036.432.432 0 00.437.126 2.9 2.9 0 001.405-1.265 18.122 18.122 0 001.578-2.731c.488-1.031.919-2.037 1.279-2.985.062-.164.115-.308.17-.454a13.618 13.618 0 01.329-2.723c.214-.768.6-1.156 1.138-1.156a3.678 3.678 0 01.838.212 3.643 3.643 0 01.8.547c.4.3.572.508.589.713a.36.36 0 01-.1.279l-.1.062a1.243 1.243 0 01-.683 0h-.029a.482.482 0 01-.042.1.582.582 0 00-.009.12v.1l-.041.04a5.069 5.069 0 00-.038.831v1.951c0 .734.012 1.395.039 2.016q.014.382.024.674c.048-.2.1-.436.142-.707q.154-.9.311-1.756c.1-.611.2-1.1.277-1.455.075-.333.14-.641.191-.924s.1-.591.155-.93.13-.821.236-1.446c.516-3.158.976-5.732 1.366-7.652.536-2.643.843-3.244 1.027-3.465.229-.228.686-.479 1.383.219a.752.752 0 01.183.348 5.193 5.193 0 01.084.706c.025.342.052.863.079 1.57s.039 1.707.039 2.934c0 3.253.078 5.578.232 6.914.1.877.221 1.713.35 2.483a10.6 10.6 0 00.245 1.186 32.733 32.733 0 002.694-3.7c.582-.9 1.047-1.57 1.415-2.041a8.444 8.444 0 01.966-1.085 1.252 1.252 0 011.585-.242 1.326 1.326 0 01.737.96 9.548 9.548 0 01-.034 2.336c-.053.775-.1 1.644-.155 2.6s-.078 1.9-.078 2.8v2.5a12.783 12.783 0 00.076 1.64 18.607 18.607 0 00.731 3.781c.446 1.372.735 1.387.738 1.387s.155-.049.588-.571a10.32 10.32 0 001.064-1.637 23.029 23.029 0 001.741-3.674 53.49 53.49 0 001.584-5.364 12.045 12.045 0 01.876-3.967 4.01 4.01 0 011.437-2.149 1.565 1.565 0 011.5.2 2.01 2.01 0 01.971 1.289 6.363 6.363 0 01-.116 2.326 5.982 5.982 0 01-.858 2.242 1.6 1.6 0 01-.92.841 1.048 1.048 0 01-.818-.148l-.012-.006v1.509c.051.759.1 1.328.153 1.679a5.4 5.4 0 00.224.969 2.465 2.465 0 00.447 1.036.433.433 0 00.438.126 2.909 2.909 0 001.406-1.265 18.481 18.481 0 001.577-2.731c.495-1.045.925-2.048 1.277-2.984s.593-1.609.7-1.97c.066-.144.16-.337.356-.337.07 0 .125.014.462.183l.682.225-.559 1.491q-.235.625-.7 1.835c-.313.8-.654 1.647-1.017 2.5a20.134 20.134 0 01-1.185 2.369 4.405 4.405 0 01-1.329 1.528 3.333 3.333 0 01-1.017.383 2.3 2.3 0 01-.491.057 1.589 1.589 0 01-.591-.107 3.521 3.521 0 01-2.167-2.094 7.358 7.358 0 01-.392-1.123 36.255 36.255 0 01-2.312 6.025c-.861 1.638-1.687 2.434-2.523 2.434l-.108-.023a.658.658 0 00-.282-.052.8.8 0 01-.517-.182 1.78 1.78 0 01-.844-.491 8.62 8.62 0 01-.646-.926 12.694 12.694 0 01-1.247-5.228 59.866 59.866 0 01.273-8.5c.053-.37.091-.73.119-1.088a2.7 2.7 0 00-.033-.78v-.068l-.333.464c-.1.148-.186.288-.262.413s-.137.236-.186.334a4.063 4.063 0 00-.216.356 3.862 3.862 0 01-.419.758c-.266.425-.586.889-.947 1.382s-.715.972-1.051 1.438-.554.774-.658.93a3.126 3.126 0 01-.877.787 1.643 1.643 0 01-1.006.1 1.973 1.973 0 01-1.394-1.1 9.963 9.963 0 01-.766-2.768c-.054-.373-.093-.689-.119-.952s-.053-.518-.078-.78-.053-.561-.078-.9-.066-.788-.116-1.361c0-.525-.014-.978-.041-1.372-.012-.186-.022-.341-.029-.464-.079.422-.151.821-.216 1.193q-.232 1.362-.467 2.919c-.161 1.076-.288 2.018-.389 2.879-.359 2.418-.65 4.206-.86 5.322-.3 1.548-.593 1.9-.819 2.039a1.679 1.679 0 01-1.887-.072c-.911-.5-1.446-1.935-1.629-4.351-.094.225-.182.441-.283.68a19.809 19.809 0 01-1.185 2.37 4.367 4.367 0 01-1.329 1.527 3.316 3.316 0 01-1.016.383 2.3 2.3 0 01-.491.057 1.584 1.584 0 01-.59-.107 3.527 3.527 0 01-2.169-2.094 7.57 7.57 0 01-.431-1.293c-.475 1.428-.978 2.828-1.521 4.146a16.729 16.729 0 01-1.827 3.528 2.9 2.9 0 01-2.113 1.421 1.48 1.48 0 01-.527-.094zm39.35-16.9a12.67 12.67 0 00-.5 1.376h0a8.2 8.2 0 00-.3 1.739c-.018.234-.025.4-.026.526.01-.014.02-.031.029-.048a4.493 4.493 0 00.9-2.4 2.869 2.869 0 00.077-1.1 2.223 2.223 0 00-.068-.331 2.411 2.411 0 00-.116.232zm-30.417 0a12.211 12.211 0 00-.5 1.377 8.325 8.325 0 00-.3 1.74c-.018.233-.025.4-.026.526l.03-.049a4.483 4.483 0 00.9-2.4 2.892 2.892 0 00.078-1.1 2.425 2.425 0 00-.068-.33 2.341 2.341 0 00-.119.23z" fill="#0c0e0e" stroke="rgba(0,0,0,0)" stroke-miterlimit="10"/>
</svg>
