<svg xmlns="http://www.w3.org/2000/svg" viewBox="0 0 26.2 28.5">
  <path d="M20.7 2.7l3 2.5c.5.4 1.2.3 1.6-.1.4-.5.3-1.2-.1-1.6l-3-2.5c-.5-.4-1.2-.3-1.6.1-.5.5-.4 1.2.1 1.6zM1.8 5.5c.3 0 .5-.1.7-.3l3-2.5c.5-.4.6-1.1.2-1.5S4.6.6 4.2 1l-3 2.5C.7 3.9.6 4.6 1 5.1c.2.2.5.4.8.4zm20.6.6c-2.2-2.2-5.1-3.5-8.2-3.8V1.1c0-.6-.5-1.1-1.1-1.1S12 .5 12 1.1v1.2c-7.2.6-12.6 7-12 14.2.3 3.1 1.6 6 3.8 8.2 4.6 4.6 11.8 5.1 17.1 1.3.5-.4.6-1 .3-1.5-.4-.5-1-.6-1.5-.3-4.8 3.6-11.7 2.5-15.2-2.3S1.9 10.1 6.7 6.6s11.7-2.5 15.2 2.3c2.5 3.4 2.8 8 .8 11.7-.3.5-.1 1.2.5 1.5.5.3 1.2.1 1.5-.4 2.7-5.2 1.8-11.5-2.3-15.6zm-3.9 2.6c-.5-.4-1.2-.3-1.6.2l-3.5 4.3c-1.2-.2-2.4.6-2.5 1.8s.6 2.4 1.8 2.5 2.4-.6 2.5-1.8c.1-.4 0-.8-.1-1.1l3.5-4.3c.5-.6.4-1.3-.1-1.6z" fill="#ff6f23"/>
</svg>
